<?xml version="1.0" encoding="UTF-8"?>
<svg id="_レイヤー_1" data-name="レイヤー 1" xmlns="http://www.w3.org/2000/svg" width="986.38" height="990" viewBox="0 0 986.38 990">
  <defs>
    <style>
      .cls-1 {
        fill: #00507e;
      }
    </style>
  </defs>
  <path class="cls-1" d="m957.78,233.77c-19.64-26.18-48-43.63-80.72-48-26.18-4.36-54.54,0-78.54,10.91-26.18,10.91-48,26.18-67.63,45.82-21.82,19.64-41.45,41.45-58.91,65.45l-30.54,41.45-19.64,30.54-21.82,39.27-17.45,37.09-26.18-8.73-28.36-15.27c17.45-19.64,30.54-39.27,43.63-61.09,15.27-26.18,26.18-52.36,34.91-80.72,13.09-41.45,19.64-85.09,21.82-128.72,0-28.36-4.36-56.73-15.27-82.91-8.73-19.64-21.82-37.09-37.09-52.36C551.98,6.87,523.62-1.85,493.07.33c-30.54,2.18-56.73,15.27-78.54,37.09-28.36,28.36-43.63,67.63-41.45,109.09h41.45c0-19.64,4.36-37.09,13.09-54.54,13.09-24,34.91-39.27,61.09-45.82,24-4.36,48,2.18,65.45,19.64,34.91,34.91,37.09,87.27,30.54,143.99-4.36,48-19.64,93.81-41.45,135.27-13.09,26.18-30.54,48-50.18,69.82-13.09-13.09-26.18-26.18-37.09-41.45-21.82-32.73-39.27-67.63-50.18-104.72-6.55-26.18-10.91-52.36-10.91-80.72h-41.45c0,72,24,143.99,65.45,202.9,13.09,17.45,26.18,32.73,41.45,48-17.45,8.73-34.91,15.27-52.36,21.82-4.36-10.91-24-45.82-34.91-61.09-10.91-15.27-34.91-48-50.18-67.63-15.27-19.64-45.82-50.18-61.09-67.63-13.09-13.09-30.54-24-45.82-34.91-13.09-8.73-28.36-15.27-43.63-19.64-65.45-24-139.63,10.91-163.63,76.36-6.55,17.45-8.73,34.91-8.73,52.36,2.18,24,8.73,48,24,67.63,28.36,37.09,65.45,65.45,106.91,82.91,32.73,15.27,67.63,24,102.54,28.36,28.36,2.18,54.54,4.36,82.91,2.18,21.82,0,45.82-4.36,67.63-8.73,6.55,15.27,10.91,30.54,15.27,45.82s6.55,32.73,6.55,48c-43.63,6.55-85.09,21.82-124.36,43.63-34.91,21.82-67.63,48-98.18,76.36-26.18,24-45.82,52.36-61.09,82.91-8.73,19.64-13.09,41.45-13.09,63.27,2.18,45.82,28.36,87.27,69.82,106.91,39.27,19.64,91.63,17.45,141.81-19.64,41.45-30.54,74.18-72,91.63-120,15.27-37.09,26.18-76.36,30.54-115.63,2.18-28.36,4.36-54.54,4.36-82.91,34.91-4.36,67.63-4.36,102.54-2.18,0,28.36,4.36,56.73,8.73,85.09,6.55,39.27,19.64,76.36,34.91,111.27,17.45,41.45,45.82,76.36,80.72,104.72,26.18,24,61.09,37.09,96,39.27,28.36,2.18,58.91-6.55,80.72-26.18,24-21.82,39.27-52.36,43.63-85.09,4.36-34.91-4.36-69.82-24-98.18-19.64-28.36-43.63-54.54-72-76.36-24-21.82-52.36-39.27-80.72-54.54-39.27-19.64-80.72-30.54-124.36-37.09,2.18-32.73,8.73-63.27,17.45-93.81l61.09,6.55c37.09,2.18,74.18-2.18,111.27-10.91,30.54-6.55,61.09-19.64,89.45-34.91,26.18-13.09,50.18-30.54,69.82-52.36,17.45-17.45,32.73-41.45,39.27-65.45,10.91-39.27,2.18-80.72-24-115.63m-663.25,246.54c-56.73,2.18-113.45-8.73-163.63-34.91-32.73-17.45-61.09-41.45-80.72-72-10.91-17.45-13.09-39.27-8.73-58.91,4.36-19.64,17.45-39.27,32.73-52.36,39.27-28.36,78.54-17.45,115.63,0,37.09,17.45,80.72,72,109.09,102.54,26.18,32.73,50.18,67.63,69.82,106.91-24,4.36-45.82,8.73-69.82,8.73m104.72,257.45c-6.55,39.27-19.64,78.54-37.09,113.45-24,39.27-54.54,82.91-104.72,96-41.45,15.27-85.09-6.55-100.36-45.82-2.18-4.36-2.18-8.73-4.36-15.27-15.27-52.36,26.18-102.54,50.18-124.36,28.36-30.54,61.09-54.54,96-76.36,32.73-19.64,69.82-30.54,106.91-37.09,0,30.54-2.18,61.09-6.55,91.63m150.54-139.63c-34.91-2.18-69.82,0-104.72,2.18-4.36-32.73-10.91-65.45-21.82-98.18,26.18-8.73,50.18-19.64,72-34.91,21.82,15.27,48,26.18,74.18,34.91-8.73,32.73-15.27,65.45-17.45,98.18m159.27,85.09c34.91,19.64,67.63,43.63,96,72,21.82,19.64,34.91,45.82,41.45,74.18,4.36,26.18,0,50.18-15.27,72-15.27,21.82-41.45,34.91-67.63,32.73-37.09-4.36-69.82-21.82-93.81-50.18-28.36-28.36-48-63.27-61.09-102.54-15.27-45.82-24-93.81-24-141.81,41.45,6.55,82.91,19.64,120,39.27m154.9-257.45c-45.82,28.36-98.18,43.63-150.54,48-30.54,2.18-61.09,0-91.63-4.36,15.27-37.09,34.91-72,58.91-104.72l52.36-65.45c13.09-17.45,28.36-30.54,45.82-43.63,24-19.64,54.54-30.54,85.09-28.36,24,2.18,45.82,13.09,58.91,32.73,10.91,13.09,17.45,30.54,19.64,48,2.18,43.63-24,80.72-78.54,117.81"/>
</svg>