<?xml version="1.0" encoding="UTF-8"?>
<svg id="out-text" xmlns="http://www.w3.org/2000/svg" width="3000" height="1665.5" xmlns:xlink="http://www.w3.org/1999/xlink" viewBox="0 0 3000 1665.5">
  <defs>
    <style>
      .cls-1 {
        fill: none;
      }

      .cls-2 {
        clip-path: url(#clippath);
      }

      .cls-3 {
        fill: #00507e;
      }

      .cls-4 {
        fill: #fff;
      }
    </style>
    <clipPath id="clippath">
      <ellipse class="cls-1" cx="1499.84" cy="500" rx="500.06" ry="500"/>
    </clipPath>
  </defs>
  <g>
    <ellipse class="cls-3" cx="1499.84" cy="500" rx="500.06" ry="500"/>
    <g class="cls-2">
      <rect class="cls-4" x="1109.79" width="30" height="1000"/>
      <rect class="cls-4" x="1859.88" width="30" height="1000"/>
      <rect class="cls-4" x="1484.44" y="-335.46" width="30" height="1006.92" transform="translate(1667.44 -1331.44) rotate(90)"/>
      <rect class="cls-4" x="1242.31" y="242.47" width="30" height="515.06" transform="translate(1757.31 -757.31) rotate(90)"/>
      <rect class="cls-4" x="1484.84" width="30" height="515"/>
      <rect class="cls-4" x="1297.22" y="500" width="30" height="500"/>
      <rect class="cls-4" x="1670.46" width="30" height="1000"/>
    </g>
    <g>
      <path class="cls-4" d="m1417.13,665.45h7.4v16.1h.15l12.25-16.1h8.15l-11.3,14.6,13.3,22.45h-8.1l-9.6-16.65-4.85,6.25v10.4h-7.4v-37.05Z"/>
      <path class="cls-4" d="m1451.43,665.45h7.4v37.05h-7.4v-37.05Z"/>
      <path class="cls-4" d="m1467.94,665.45h7.55l10.75,19.75,3.7,8h.25c-.35-3.85-.95-8.75-.95-12.95v-14.8h7v37.05h-7.5l-10.7-19.8-3.75-7.95h-.25c.35,4,.9,8.65.9,12.9v14.85h-7v-37.05Z"/>
      <path class="cls-4" d="m1505.39,665.45h10.15c11.3,0,18.3,5.9,18.3,18.4s-7,18.65-17.9,18.65h-10.55v-37.05Zm9.7,31.1c6.9,0,11.2-3.7,11.2-12.7s-4.3-12.45-11.2-12.45h-2.3v25.15h2.3Z"/>
      <path class="cls-4" d="m1548.19,665.45h8.7l11.9,37.05h-7.75l-2.6-9.5h-12l-2.6,9.5h-7.5l11.85-37.05Zm-.15,21.8h8.8l-1.1-4.05c-1.15-3.85-2.15-8.1-3.2-12.1h-.25c-.95,4.05-2.05,8.25-3.15,12.1l-1.1,4.05Z"/>
      <path class="cls-4" d="m1573.15,665.45h7.4v37.05h-7.4v-37.05Z"/>
      <path class="cls-4" d="m1358.28,726.6h10.74v44.7h-10.74v-44.7Z"/>
      <path class="cls-4" d="m1378.44,737.16h8.7l.78,4.26h.18c2.82-2.76,6.3-5.1,10.92-5.1,7.44,0,10.62,5.34,10.62,13.86v21.12h-10.68v-19.8c0-4.74-1.26-6.06-3.96-6.06-2.4,0-3.84,1.08-5.88,3.06v22.8h-10.68v-34.14Z"/>
      <path class="cls-4" d="m1419.72,745.5h-4.56v-7.92l4.56-.36v-1.38c0-7.2,3.42-13.32,12.9-13.32,3,0,5.46.6,6.96,1.14l-1.92,7.92c-1.08-.48-2.34-.72-3.48-.72-2.34,0-3.78,1.26-3.78,4.68v1.62h6.06v8.34h-6.06v25.8h-10.68v-25.8Z"/>
      <path class="cls-4" d="m1439.88,754.2c0-11.28,8.04-17.88,16.74-17.88s16.68,6.6,16.68,17.88-8.04,17.94-16.68,17.94-16.74-6.6-16.74-17.94Zm22.5,0c0-5.64-1.8-9.24-5.76-9.24s-5.82,3.6-5.82,9.24,1.8,9.3,5.82,9.3,5.76-3.6,5.76-9.3Z"/>
      <path class="cls-4" d="m1478.71,750.18h16.98v7.5h-16.98v-7.5Z"/>
      <path class="cls-4" d="m1512.49,735.54h-12.06v-8.94h34.92v8.94h-12.12v35.76h-10.74v-35.76Z"/>
      <path class="cls-4" d="m1539.49,754.2c0-11.04,7.98-17.88,16.2-17.88,9.84,0,14.64,7.14,14.64,16.44,0,1.92-.24,3.78-.48,4.62h-20.04c.96,4.68,4.2,6.6,8.52,6.6,2.46,0,4.74-.72,7.2-2.16l3.54,6.42c-3.54,2.52-8.22,3.9-12.18,3.9-9.84,0-17.4-6.6-17.4-17.94Zm21.78-3.84c0-3.36-1.5-5.88-5.4-5.88-2.94,0-5.52,1.86-6.24,5.88h11.64Z"/>
      <path class="cls-4" d="m1575.26,754.2c0-11.28,8.4-17.88,17.94-17.88,4.14,0,7.38,1.44,9.96,3.66l-4.98,6.78c-1.56-1.26-2.88-1.8-4.32-1.8-4.74,0-7.68,3.6-7.68,9.24s3.12,9.3,7.26,9.3c2.16,0,4.2-1.02,5.94-2.4l4.14,7.02c-3.36,2.94-7.68,4.02-11.28,4.02-9.6,0-16.98-6.6-16.98-17.94Z"/>
      <path class="cls-4" d="m1609.4,723.36h10.68v11.52l-.54,6.06c2.46-2.28,5.82-4.62,10.44-4.62,7.44,0,10.62,5.34,10.62,13.86v21.12h-10.68v-19.8c0-4.74-1.26-6.06-3.96-6.06-2.4,0-3.84,1.08-5.88,3.06v22.8h-10.68v-47.94Z"/>
      <path class="cls-4" d="m1437.03,796.6h10.74v17.04h14.7v-17.04h10.68v44.7h-10.68v-18.36h-14.7v18.36h-10.74v-44.7Z"/>
      <path class="cls-4" d="m1483.24,820.3v-23.7h10.68v24.84c0,8.46,2.52,11.46,7.44,11.46s7.56-3,7.56-11.46v-24.84h10.32v23.7c0,15.06-6,21.84-17.88,21.84s-18.12-6.78-18.12-21.84Z"/>
      <path class="cls-4" d="m1529.26,796.6h15.6c9.24,0,16.62,2.52,16.62,11.1,0,3.96-2.22,8.28-5.82,9.66v.24c4.5,1.2,7.92,4.56,7.92,10.5,0,9.12-7.74,13.2-17.46,13.2h-16.86v-44.7Zm15.18,17.76c4.56,0,6.6-1.98,6.6-5.04s-2.1-4.5-6.6-4.5h-4.44v9.54h4.44Zm.9,18.72c5.16,0,7.8-1.86,7.8-5.7s-2.58-5.16-7.8-5.16h-5.34v10.86h5.34Z"/>
    </g>
  </g>
  <g>
    <path class="cls-3" d="m360.56,1156.68h17.76v38.64h.36l29.4-38.64h19.56l-27.12,35.04,31.92,53.88h-19.44l-23.04-39.96-11.64,15v24.96h-17.76v-88.92Z"/>
    <path class="cls-3" d="m442.89,1156.68h17.76v88.92h-17.76v-88.92Z"/>
    <path class="cls-3" d="m482.49,1156.68h18.12l25.8,47.4,8.88,19.2h.6c-.84-9.24-2.28-21-2.28-31.08v-35.52h16.8v88.92h-18l-25.68-47.52-9-19.08h-.6c.84,9.6,2.16,20.76,2.16,30.96v35.64h-16.8v-88.92Z"/>
    <path class="cls-3" d="m572.38,1156.68h24.36c27.12,0,43.92,14.16,43.92,44.16s-16.8,44.76-42.96,44.76h-25.32v-88.92Zm23.28,74.64c16.56,0,26.88-8.88,26.88-30.48s-10.32-29.88-26.88-29.88h-5.52v60.36h5.52Z"/>
    <path class="cls-3" d="m675.11,1156.68h20.88l28.56,88.92h-18.6l-6.24-22.8h-28.8l-6.24,22.8h-18l28.44-88.92Zm-.36,52.32h21.12l-2.64-9.72c-2.76-9.24-5.16-19.44-7.68-29.04h-.6c-2.28,9.72-4.92,19.8-7.56,29.04l-2.64,9.72Z"/>
    <path class="cls-3" d="m735,1156.68h17.76v88.92h-17.76v-88.92Z"/>
    <path class="cls-3" d="m801.37,1205.64v-48.96h17.76v50.52c0,18.48,6.48,24.72,16.8,24.72s17.28-6.24,17.28-24.72v-50.52h17.04v48.96c0,29.52-12.6,41.64-34.32,41.64s-34.56-12.12-34.56-41.64Z"/>
    <path class="cls-3" d="m890.17,1178.4h14.4l1.32,8.88h.36c5.88-5.76,12.72-10.56,21.84-10.56,14.52,0,20.76,10.08,20.76,27v41.88h-17.64v-39.72c0-10.44-2.88-14.04-9.48-14.04-5.52,0-9,2.64-13.92,7.56v46.2h-17.64v-67.2Z"/>
    <path class="cls-3" d="m965.66,1157.88c0-5.76,4.2-9.6,10.32-9.6s10.2,3.84,10.2,9.6-4.2,9.72-10.2,9.72-10.32-3.84-10.32-9.72Zm1.44,20.52h17.64v67.2h-17.64v-67.2Z"/>
    <path class="cls-3" d="m995.78,1178.4h17.76l9.84,33.48c1.8,6.6,3.6,13.56,5.4,20.4h.6c1.8-6.84,3.6-13.8,5.4-20.4l9.84-33.48h16.92l-22.44,67.2h-20.4l-22.92-67.2Z"/>
    <path class="cls-3" d="m1071.75,1235.76c0-6.6,4.68-11.52,10.92-11.52s11.04,4.92,11.04,11.52-4.68,11.52-11.04,11.52-10.92-5.04-10.92-11.52Z"/>
    <path class="cls-3" d="m1157.44,1156.68h20.88l28.56,88.92h-18.6l-6.24-22.8h-28.8l-6.24,22.8h-18l28.44-88.92Zm-.36,52.32h21.12l-2.64-9.72c-2.76-9.24-5.16-19.44-7.68-29.04h-.6c-2.28,9.72-4.92,19.8-7.56,29.04l-2.64,9.72Z"/>
    <path class="cls-3" d="m1211.69,1212c0-22.32,16.08-35.28,34.32-35.28,8.28,0,14.64,3.24,19.56,7.44l-8.4,11.4c-3.36-2.88-6.48-4.44-10.2-4.44-10.32,0-17.28,8.28-17.28,20.88s7.08,20.88,16.68,20.88c4.8,0,9.36-2.28,13.08-5.4l7.08,11.64c-6.48,5.64-14.64,8.16-22.08,8.16-18.6,0-32.76-12.96-32.76-35.28Z"/>
    <path class="cls-3" d="m1275.77,1227.36c0-14.4,11.64-21.96,38.76-24.84-.36-6.6-3.24-11.64-11.52-11.64-6.24,0-12.24,2.76-18.48,6.36l-6.36-11.64c7.92-4.92,17.52-8.88,28.08-8.88,17.04,0,25.8,10.2,25.8,29.64v39.24h-14.4l-1.2-7.2h-.48c-5.88,5.04-12.6,8.88-20.28,8.88-12,0-19.92-8.52-19.92-19.92Zm38.76-.48v-13.56c-16.44,2.04-21.96,6.6-21.96,12.6,0,5.28,3.72,7.56,8.88,7.56s8.76-2.4,13.08-6.6Z"/>
    <path class="cls-3" d="m1346.22,1212c0-21.84,13.68-35.28,28.2-35.28,7.56,0,12.24,2.88,17.04,7.32l-.6-10.56v-23.64h17.52v95.76h-14.28l-1.32-6.96h-.48c-4.92,4.8-11.64,8.64-18.6,8.64-16.68,0-27.48-13.2-27.48-35.28Zm44.64,13.8v-29.52c-4.08-3.72-8.4-5.04-12.6-5.04-7.56,0-13.92,7.2-13.92,20.64s5.04,20.88,13.92,20.88c4.68,0,8.64-1.92,12.6-6.96Z"/>
    <path class="cls-3" d="m1423.15,1212c0-21.72,15.36-35.28,31.32-35.28,18.48,0,28.08,13.56,28.08,32.04,0,3.36-.36,6.6-.84,8.16h-41.4c1.44,11.04,8.64,16.8,18.6,16.8,5.52,0,10.32-1.68,15.12-4.68l6,10.8c-6.6,4.56-15.12,7.44-23.4,7.44-18.84,0-33.48-13.08-33.48-35.28Zm44.28-6.84c0-9-4.08-14.76-12.72-14.76-7.08,0-13.32,5.04-14.64,14.76h27.36Z"/>
    <path class="cls-3" d="m1497.08,1178.4h14.4l1.32,9h.36c5.64-5.88,11.88-10.68,20.64-10.68,9.6,0,15.24,4.32,18.48,11.76,6.12-6.48,12.6-11.76,21.36-11.76,14.28,0,20.88,10.08,20.88,27v41.88h-17.64v-39.72c0-10.44-3-14.04-9.36-14.04-3.84,0-8.16,2.52-12.96,7.56v46.2h-17.52v-39.72c0-10.44-3.12-14.04-9.48-14.04-3.84,0-8.16,2.52-12.84,7.56v46.2h-17.64v-67.2Z"/>
    <path class="cls-3" d="m1611.33,1157.88c0-5.76,4.2-9.6,10.32-9.6s10.2,3.84,10.2,9.6-4.2,9.72-10.2,9.72-10.32-3.84-10.32-9.72Zm1.44,20.52h17.64v67.2h-17.64v-67.2Z"/>
    <path class="cls-3" d="m1645.05,1212c0-22.32,16.08-35.28,34.32-35.28,8.28,0,14.64,3.24,19.56,7.44l-8.4,11.4c-3.36-2.88-6.48-4.44-10.2-4.44-10.32,0-17.28,8.28-17.28,20.88s7.08,20.88,16.68,20.88c4.8,0,9.36-2.28,13.08-5.4l7.08,11.64c-6.48,5.64-14.64,8.16-22.08,8.16-18.6,0-32.76-12.96-32.76-35.28Z"/>
    <path class="cls-3" d="m1758.82,1171.56h-24.96v-14.88h67.93v14.88h-25.2v74.04h-17.76v-74.04Z"/>
    <path class="cls-3" d="m1814.75,1149.84h17.64v24.12l-.84,12.6c5.4-5.04,12-9.84,21.12-9.84,14.52,0,20.76,10.08,20.76,27v41.88h-17.64v-39.72c0-10.44-2.88-14.04-9.48-14.04-5.52,0-9,2.64-13.92,7.56v46.2h-17.64v-95.76Z"/>
    <path class="cls-3" d="m1887.36,1212c0-21.72,15.36-35.28,31.32-35.28,18.48,0,28.08,13.56,28.08,32.04,0,3.36-.36,6.6-.84,8.16h-41.4c1.44,11.04,8.64,16.8,18.6,16.8,5.52,0,10.32-1.68,15.12-4.68l6,10.8c-6.6,4.56-15.12,7.44-23.4,7.44-18.84,0-33.48-13.08-33.48-35.28Zm44.28-6.84c0-9-4.08-14.76-12.72-14.76-7.08,0-13.32,5.04-14.64,14.76h27.36Z"/>
    <path class="cls-3" d="m1957.93,1227.36c0-14.4,11.64-21.96,38.76-24.84-.36-6.6-3.24-11.64-11.52-11.64-6.24,0-12.24,2.76-18.48,6.36l-6.36-11.64c7.92-4.92,17.52-8.88,28.08-8.88,17.04,0,25.8,10.2,25.8,29.64v39.24h-14.4l-1.2-7.2h-.48c-5.88,5.04-12.6,8.88-20.28,8.88-12,0-19.92-8.52-19.92-19.92Zm38.76-.48v-13.56c-16.44,2.04-21.96,6.6-21.96,12.6,0,5.28,3.72,7.56,8.88,7.56s8.76-2.4,13.08-6.6Z"/>
    <path class="cls-3" d="m2034.73,1222.08v-29.76h-9.48v-13.08l10.44-.84,2.04-18.12h14.64v18.12h16.56v13.92h-16.56v29.76c0,7.68,3.12,11.28,9.12,11.28,2.16,0,4.8-.72,6.6-1.44l2.88,12.84c-3.6,1.2-8.28,2.52-14.16,2.52-15.96,0-22.08-10.2-22.08-25.2Z"/>
    <path class="cls-3" d="m2078.42,1212c0-21.72,15.36-35.28,31.32-35.28,18.48,0,28.08,13.56,28.08,32.04,0,3.36-.36,6.6-.84,8.16h-41.4c1.44,11.04,8.64,16.8,18.6,16.8,5.52,0,10.32-1.68,15.12-4.68l6,10.8c-6.6,4.56-15.12,7.44-23.4,7.44-18.84,0-33.48-13.08-33.48-35.28Zm44.28-6.84c0-9-4.08-14.76-12.72-14.76-7.08,0-13.32,5.04-14.64,14.76h27.36Z"/>
    <path class="cls-3" d="m2152.35,1178.4h14.4l1.32,11.88h.36c4.92-8.76,12.12-13.56,19.08-13.56,3.72,0,5.88.6,7.92,1.44l-3,15.24c-2.4-.72-4.32-1.08-7.08-1.08-5.28,0-11.64,3.48-15.36,13.2v40.08h-17.64v-67.2Z"/>
    <path class="cls-3" d="m2233.35,1156.68h29.16c19.68,0,34.8,6.96,34.8,27.96s-15.24,29.4-34.32,29.4h-11.88v31.56h-17.76v-88.92Zm28.44,43.32c12.24,0,18.12-5.16,18.12-15.36s-6.48-13.8-18.72-13.8h-10.08v29.16h10.68Z"/>
    <path class="cls-3" d="m2311.96,1178.4h14.4l1.32,11.88h.36c4.92-8.76,12.12-13.56,19.08-13.56,3.72,0,5.88.6,7.92,1.44l-3,15.24c-2.4-.72-4.32-1.08-7.08-1.08-5.28,0-11.64,3.48-15.36,13.2v40.08h-17.64v-67.2Z"/>
    <path class="cls-3" d="m2360.09,1212c0-22.32,15.48-35.28,32.28-35.28s32.28,12.96,32.28,35.28-15.48,35.28-32.28,35.28-32.28-12.96-32.28-35.28Zm46.56,0c0-12.6-5.16-20.88-14.28-20.88s-14.28,8.28-14.28,20.88,5.16,20.88,14.28,20.88,14.28-8.16,14.28-20.88Z"/>
    <path class="cls-3" d="m2423.45,1271.28l3.12-13.08c1.8.6,3.6.96,5.64.96,5.64,0,7.32-3.84,7.32-11.4v-69.36h17.64v68.88c0,14.4-5.52,25.8-22.44,25.8-5.16,0-8.64-.84-11.28-1.8Zm14.64-113.4c0-5.76,4.2-9.6,10.2-9.6s10.32,3.84,10.32,9.6-4.2,9.72-10.32,9.72-10.2-3.84-10.2-9.72Z"/>
    <path class="cls-3" d="m2471.94,1212c0-21.72,15.36-35.28,31.32-35.28,18.48,0,28.08,13.56,28.08,32.04,0,3.36-.36,6.6-.84,8.16h-41.4c1.44,11.04,8.64,16.8,18.6,16.8,5.52,0,10.32-1.68,15.12-4.68l6,10.8c-6.6,4.56-15.12,7.44-23.4,7.44-18.84,0-33.48-13.08-33.48-35.28Zm44.28-6.84c0-9-4.08-14.76-12.72-14.76-7.08,0-13.32,5.04-14.64,14.76h27.36Z"/>
    <path class="cls-3" d="m2541.67,1212c0-22.32,16.08-35.28,34.32-35.28,8.28,0,14.64,3.24,19.56,7.44l-8.4,11.4c-3.36-2.88-6.48-4.44-10.2-4.44-10.32,0-17.28,8.28-17.28,20.88s7.08,20.88,16.68,20.88c4.8,0,9.36-2.28,13.08-5.4l7.08,11.64c-6.48,5.64-14.64,8.16-22.08,8.16-18.6,0-32.76-12.96-32.76-35.28Z"/>
    <path class="cls-3" d="m2611.63,1222.08v-29.76h-9.48v-13.08l10.44-.84,2.04-18.12h14.64v18.12h16.56v13.92h-16.56v29.76c0,7.68,3.12,11.28,9.12,11.28,2.16,0,4.8-.72,6.6-1.44l2.88,12.84c-3.6,1.2-8.28,2.52-14.16,2.52-15.96,0-22.08-10.2-22.08-25.2Z"/>
    <path class="cls-3" d="m36.06,1324.75h37v80.5h.75l61.26-80.5h40.76l-56.51,73,66.51,112.25h-40.5l-48.01-83.25-24.25,31.25v52h-37v-185.25Z"/>
    <path class="cls-3" d="m207.58,1324.75h37v185.25h-37v-185.25Z"/>
    <path class="cls-3" d="m326.84,1355.75h-52.01v-31h141.52v31h-52.51v154.25h-37v-154.25Z"/>
    <path class="cls-3" d="m446.35,1324.75h37v73h70.01v-73h36.75v185.25h-36.75v-80h-70.01v80h-37v-185.25Z"/>
    <path class="cls-3" d="m634.62,1426.75v-102h37v105.25c0,38.5,13.5,51.5,35,51.5s36-13,36-51.5v-105.25h35.5v102c0,61.5-26.25,86.75-71.51,86.75s-72.01-25.25-72.01-86.75Z"/>
    <path class="cls-3" d="m822.64,1324.75h61.26c38,0,67.01,11.25,67.01,45.75,0,17-9.5,34.5-25.25,40v1.25c20,4.75,34.75,18.75,34.75,43.75,0,37.25-31,54.5-71.76,54.5h-66.01v-185.25Zm58.51,75.5c23.5,0,33.75-9.5,33.75-24.25,0-16.25-11-22.75-33.25-22.75h-22v47h21.5Zm4.25,81.25c25.25,0,39-9,39-28.25,0-18-13.5-25.75-39-25.75h-25.75v54h25.75Z"/>
    <path class="cls-3" d="m1049.67,1324.75h41l31.5,86.75c4,11.5,7.5,23.75,11.25,35.5h1.25c4-11.75,7.25-24,11.25-35.5l30.75-86.75h41v185.25h-33.75v-77.25c0-17.5,2.75-43.25,4.75-60.75h-1.25l-15,43.5-28.5,77.75h-21.25l-28.75-77.75-14.75-43.5h-1c1.75,17.5,4.75,43.25,4.75,60.75v77.25h-33.25v-185.25Z"/>
    <path class="cls-3" d="m1251.44,1440c0-45.25,32-73.5,65.26-73.5,38.5,0,58.51,28.25,58.51,66.75,0,7-.75,13.75-1.75,17h-86.26c3,23,18,35,38.75,35,11.5,0,21.5-3.5,31.5-9.75l12.5,22.5c-13.75,9.5-31.5,15.5-48.76,15.5-39.25,0-69.76-27.25-69.76-73.5Zm92.26-14.25c0-18.75-8.5-30.75-26.5-30.75-14.75,0-27.75,10.5-30.5,30.75h57.01Z"/>
    <path class="cls-3" d="m1405.46,1370h30l2.75,18.75h.75c11.75-12.25,24.75-22.25,43.01-22.25,20,0,31.75,9,38.5,24.5,12.75-13.5,26.25-24.5,44.5-24.5,29.75,0,43.51,21,43.51,56.25v87.25h-36.75v-82.75c0-21.75-6.25-29.25-19.5-29.25-8,0-17,5.25-27,15.75v96.25h-36.5v-82.75c0-21.75-6.5-29.25-19.75-29.25-8,0-17,5.25-26.75,15.75v96.25h-36.75v-140Z"/>
    <path class="cls-3" d="m1679.49,1495.25h-1l-3.25,14.75h-28.75v-199.5h36.75v50.25l-1,22.5c11-10,25-16.75,38.75-16.75,34.5,0,55.26,28.25,55.26,71,0,48.25-28.75,76-59.51,76-12.5,0-26-6.5-37.25-18.25Zm59.01-57c0-26.75-8.5-41.5-27.75-41.5-9.5,0-18,4.75-27.5,14.5v61.5c8.75,7.75,17.75,10.5,25.25,10.5,17,0,30-14.5,30-45Z"/>
    <path class="cls-3" d="m1798.75,1440c0-45.25,32-73.5,65.26-73.5,38.5,0,58.51,28.25,58.51,66.75,0,7-.75,13.75-1.75,17h-86.26c3,23,18,35,38.75,35,11.5,0,21.5-3.5,31.5-9.75l12.5,22.5c-13.75,9.5-31.5,15.5-48.76,15.5-39.25,0-69.76-27.25-69.76-73.5Zm92.26-14.25c0-18.75-8.5-30.75-26.5-30.75-14.75,0-27.75,10.5-30.5,30.75h57.01Z"/>
    <path class="cls-3" d="m1952.77,1370h30l2.75,24.75h.75c10.25-18.25,25.25-28.25,39.76-28.25,7.75,0,12.25,1.25,16.5,3l-6.25,31.75c-5-1.5-9-2.25-14.75-2.25-11,0-24.25,7.25-32,27.5v83.5h-36.75v-140Z"/>
    <path class="cls-3" d="m2048.53,1493.75l16.75-23c12.5,9.75,24.5,15.25,37.5,15.25,14,0,20.25-6,20.25-14.75,0-10.5-14.5-15.25-29.25-21-17.75-6.75-37.5-17.5-37.5-41,0-25,20.25-42.75,52.26-42.75,20.25,0,36,8.5,47.51,17.25l-16.5,22.25c-10-7.25-19.75-12-30-12-12.75,0-18.75,5.5-18.75,13.5,0,10.25,13,14,27.75,19.5,18.5,7,39,16.25,39,42.25,0,24.5-19.25,44.25-55.76,44.25-18.75,0-39.25-8.25-53.26-19.75Z"/>
    <path class="cls-3" d="m2245.29,1324.75h60.76c41,0,72.51,14.5,72.51,58.25s-31.75,61.25-71.51,61.25h-24.75v65.75h-37v-185.25Zm59.26,90.25c25.5,0,37.75-10.75,37.75-32s-13.5-28.75-39-28.75h-21v60.75h22.25Z"/>
    <path class="cls-3" d="m2400.31,1440c0-46.5,32.25-73.5,67.26-73.5s67.26,27,67.26,73.5-32.25,73.5-67.26,73.5-67.26-27-67.26-73.5Zm97.01,0c0-26.25-10.75-43.5-29.75-43.5s-29.75,17.25-29.75,43.5,10.75,43.5,29.75,43.5,29.75-17,29.75-43.5Z"/>
    <path class="cls-3" d="m2565.58,1370h30l2.75,24.75h.75c10.25-18.25,25.25-28.25,39.75-28.25,7.75,0,12.25,1.25,16.5,3l-6.25,31.75c-5-1.5-9-2.25-14.75-2.25-11,0-24.25,7.25-32,27.5v83.5h-36.75v-140Z"/>
    <path class="cls-3" d="m2679.84,1461v-62h-19.75v-27.25l21.75-1.75,4.25-37.75h30.5v37.75h34.5v29h-34.5v62c0,16,6.5,23.5,19,23.5,4.5,0,10-1.5,13.75-3l6,26.75c-7.5,2.5-17.25,5.25-29.5,5.25-33.25,0-46.01-21.25-46.01-52.5Z"/>
    <path class="cls-3" d="m2772.6,1472c0-30,24.25-45.75,80.76-51.75-.75-13.75-6.75-24.25-24-24.25-13,0-25.5,5.75-38.5,13.25l-13.25-24.25c16.5-10.25,36.5-18.5,58.51-18.5,35.5,0,53.76,21.25,53.76,61.75v81.75h-30l-2.5-15h-1c-12.25,10.5-26.25,18.5-42.26,18.5-25,0-41.5-17.75-41.5-41.5Zm80.76-1v-28.25c-34.25,4.25-45.75,13.75-45.75,26.25,0,11,7.75,15.75,18.5,15.75s18.25-5,27.25-13.75Z"/>
    <path class="cls-3" d="m2927.37,1470.75v-160.25h36.75v161.75c0,8.5,3.75,11.25,7.25,11.25,1.5,0,2.5,0,5-.5l4.5,27.25c-4.25,1.75-10.25,3.25-19,3.25-25.5,0-34.5-16.75-34.5-42.75Z"/>
  </g>
</svg>