<?xml version="1.0" encoding="UTF-8"?>
<svg id="out-text" xmlns="http://www.w3.org/2000/svg" width="4762.61" height="1000" xmlns:xlink="http://www.w3.org/1999/xlink" viewBox="0 0 4762.61 1000">
  <defs>
    <style>
      .cls-1 {
        fill: none;
      }

      .cls-2 {
        clip-path: url(#clippath);
      }

      .cls-3, .cls-4 {
        fill: #00507e;
      }

      .cls-5 {
        fill: #fff;
      }

      .cls-4 {
        font-family: NotoSansCJKjp-Bold-83pv-RKSJ-H, 'Noto Sans CJK JP';
        font-weight: 700;
      }

      .cls-6 {
        font-size: 150px;
      }

      .cls-7 {
        font-size: 300px;
      }
    </style>
    <clipPath id="clippath">
      <ellipse class="cls-1" cx="500.16" cy="500" rx="500.06" ry="500"/>
    </clipPath>
  </defs>
  <text id="right-large" class="cls-4" transform="translate(1115 -600)"><tspan class="cls-6"><tspan x="0" y="0">KINDAI Univ. Academic Theater Project</tspan></tspan><tspan class="cls-7"><tspan x="-15" y="332">KITHUB Members Site</tspan></tspan></text>
  <g>
    <path class="cls-5" d="m1128.65,288.85h22.2v48.3h.45l36.75-48.3h24.45l-33.9,43.8,39.9,67.35h-24.3l-28.8-49.95-14.55,18.75v31.2h-22.2v-111.15Z"/>
    <path class="cls-5" d="m1231.55,288.85h22.2v111.15h-22.2v-111.15Z"/>
    <path class="cls-5" d="m1281.05,288.85h22.65l32.25,59.25,11.1,24h.75c-1.05-11.55-2.85-26.25-2.85-38.85v-44.4h21v111.15h-22.5l-32.1-59.4-11.25-23.85h-.75c1.05,12,2.7,25.95,2.7,38.7v44.55h-21v-111.15Z"/>
    <path class="cls-5" d="m1393.4,288.85h30.45c33.9,0,54.9,17.7,54.9,55.2s-21,55.95-53.7,55.95h-31.65v-111.15Zm29.1,93.3c20.7,0,33.6-11.1,33.6-38.1s-12.9-37.35-33.6-37.35h-6.9v75.45h6.9Z"/>
    <path class="cls-5" d="m1521.79,288.85h26.1l35.7,111.15h-23.25l-7.8-28.5h-36l-7.8,28.5h-22.5l35.55-111.15Zm-.45,65.4h26.4l-3.3-12.15c-3.45-11.55-6.45-24.3-9.6-36.3h-.75c-2.85,12.15-6.15,24.75-9.45,36.3l-3.3,12.15Z"/>
    <path class="cls-5" d="m1596.64,288.85h22.2v111.15h-22.2v-111.15Z"/>
    <path class="cls-5" d="m1679.59,350.05v-61.2h22.2v63.15c0,23.1,8.1,30.9,21,30.9s21.6-7.8,21.6-30.9v-63.15h21.3v61.2c0,36.9-15.75,52.05-42.9,52.05s-43.2-15.15-43.2-52.05Z"/>
    <path class="cls-5" d="m1790.59,316h18l1.65,11.1h.45c7.35-7.2,15.9-13.2,27.3-13.2,18.15,0,25.95,12.6,25.95,33.75v52.35h-22.05v-49.65c0-13.05-3.6-17.55-11.85-17.55-6.9,0-11.25,3.3-17.4,9.45v57.75h-22.05v-84Z"/>
    <path class="cls-5" d="m1884.93,290.35c0-7.2,5.25-12,12.9-12s12.75,4.8,12.75,12-5.25,12.15-12.75,12.15-12.9-4.8-12.9-12.15Zm1.8,25.65h22.05v84h-22.05v-84Z"/>
    <path class="cls-5" d="m1922.58,316h22.2l12.3,41.85c2.25,8.25,4.5,16.95,6.75,25.5h.75c2.25-8.55,4.5-17.25,6.75-25.5l12.3-41.85h21.15l-28.05,84h-25.5l-28.65-84Z"/>
    <path class="cls-5" d="m2017.53,387.7c0-8.25,5.85-14.4,13.65-14.4s13.8,6.15,13.8,14.4-5.85,14.4-13.8,14.4-13.65-6.3-13.65-14.4Z"/>
    <path class="cls-5" d="m2124.63,288.85h26.1l35.7,111.15h-23.25l-7.8-28.5h-36l-7.8,28.5h-22.5l35.55-111.15Zm-.45,65.4h26.4l-3.3-12.15c-3.45-11.55-6.45-24.3-9.6-36.3h-.75c-2.85,12.15-6.15,24.75-9.45,36.3l-3.3,12.15Z"/>
    <path class="cls-5" d="m2192.43,358c0-27.9,20.1-44.1,42.9-44.1,10.35,0,18.3,4.05,24.45,9.3l-10.5,14.25c-4.2-3.6-8.1-5.55-12.75-5.55-12.9,0-21.6,10.35-21.6,26.1s8.85,26.1,20.85,26.1c6,0,11.7-2.85,16.35-6.75l8.85,14.55c-8.1,7.05-18.3,10.2-27.6,10.2-23.25,0-40.95-16.2-40.95-44.1Z"/>
    <path class="cls-5" d="m2272.53,377.2c0-18,14.55-27.45,48.45-31.05-.45-8.25-4.05-14.55-14.4-14.55-7.8,0-15.3,3.45-23.1,7.95l-7.95-14.55c9.9-6.15,21.9-11.1,35.1-11.1,21.3,0,32.25,12.75,32.25,37.05v49.05h-18l-1.5-9h-.6c-7.35,6.3-15.75,11.1-25.35,11.1-15,0-24.9-10.65-24.9-24.9Zm48.45-.6v-16.95c-20.55,2.55-27.45,8.25-27.45,15.75,0,6.6,4.65,9.45,11.1,9.45s10.95-3,16.35-8.25Z"/>
    <path class="cls-5" d="m2360.57,358c0-27.3,17.1-44.1,35.25-44.1,9.45,0,15.3,3.6,21.3,9.15l-.75-13.2v-29.55h21.9v119.7h-17.85l-1.65-8.7h-.6c-6.15,6-14.55,10.8-23.25,10.8-20.85,0-34.35-16.5-34.35-44.1Zm55.8,17.25v-36.9c-5.1-4.65-10.5-6.3-15.75-6.3-9.45,0-17.4,9-17.4,25.8s6.3,26.1,17.4,26.1c5.85,0,10.8-2.4,15.75-8.7Z"/>
    <path class="cls-5" d="m2456.72,358c0-27.15,19.2-44.1,39.15-44.1,23.1,0,35.1,16.95,35.1,40.05,0,4.2-.45,8.25-1.05,10.2h-51.75c1.8,13.8,10.8,21,23.25,21,6.9,0,12.9-2.1,18.9-5.85l7.5,13.5c-8.25,5.7-18.9,9.3-29.25,9.3-23.55,0-41.85-16.35-41.85-44.1Zm55.35-8.55c0-11.25-5.1-18.45-15.9-18.45-8.85,0-16.65,6.3-18.3,18.45h34.2Z"/>
    <path class="cls-5" d="m2549.12,316h18l1.65,11.25h.45c7.05-7.35,14.85-13.35,25.8-13.35,12,0,19.05,5.4,23.1,14.7,7.65-8.1,15.75-14.7,26.7-14.7,17.85,0,26.1,12.6,26.1,33.75v52.35h-22.05v-49.65c0-13.05-3.75-17.55-11.7-17.55-4.8,0-10.2,3.15-16.2,9.45v57.75h-21.9v-49.65c0-13.05-3.9-17.55-11.85-17.55-4.8,0-10.2,3.15-16.05,9.45v57.75h-22.05v-84Z"/>
    <path class="cls-5" d="m2691.92,290.35c0-7.2,5.25-12,12.9-12s12.75,4.8,12.75,12-5.25,12.15-12.75,12.15-12.9-4.8-12.9-12.15Zm1.8,25.65h22.05v84h-22.05v-84Z"/>
    <path class="cls-5" d="m2734.07,358c0-27.9,20.1-44.1,42.9-44.1,10.35,0,18.3,4.05,24.45,9.3l-10.5,14.25c-4.2-3.6-8.1-5.55-12.75-5.55-12.9,0-21.6,10.35-21.6,26.1s8.85,26.1,20.85,26.1c6,0,11.7-2.85,16.35-6.75l8.85,14.55c-8.1,7.05-18.3,10.2-27.6,10.2-23.25,0-40.95-16.2-40.95-44.1Z"/>
    <path class="cls-5" d="m2876.26,307.45h-31.2v-18.6h84.9v18.6h-31.5v92.55h-22.2v-92.55Z"/>
    <path class="cls-5" d="m2946.17,280.3h22.05v30.15l-1.05,15.75c6.75-6.3,15-12.3,26.4-12.3,18.15,0,25.95,12.6,25.95,33.75v52.35h-22.05v-49.65c0-13.05-3.6-17.55-11.85-17.55-6.9,0-11.25,3.3-17.4,9.45v57.75h-22.05v-119.7Z"/>
    <path class="cls-5" d="m3036.92,358c0-27.15,19.2-44.1,39.15-44.1,23.1,0,35.1,16.95,35.1,40.05,0,4.2-.45,8.25-1.05,10.2h-51.75c1.8,13.8,10.8,21,23.25,21,6.9,0,12.9-2.1,18.9-5.85l7.5,13.5c-8.25,5.7-18.9,9.3-29.25,9.3-23.55,0-41.85-16.35-41.85-44.1Zm55.35-8.55c0-11.25-5.1-18.45-15.9-18.45-8.85,0-16.65,6.3-18.3,18.45h34.2Z"/>
    <path class="cls-5" d="m3125.12,377.2c0-18,14.55-27.45,48.45-31.05-.45-8.25-4.05-14.55-14.4-14.55-7.8,0-15.3,3.45-23.1,7.95l-7.95-14.55c9.9-6.15,21.9-11.1,35.1-11.1,21.3,0,32.25,12.75,32.25,37.05v49.05h-18l-1.5-9h-.6c-7.35,6.3-15.75,11.1-25.35,11.1-15,0-24.9-10.65-24.9-24.9Zm48.45-.6v-16.95c-20.55,2.55-27.45,8.25-27.45,15.75,0,6.6,4.65,9.45,11.1,9.45s10.95-3,16.35-8.25Z"/>
    <path class="cls-5" d="m3221.11,370.6v-37.2h-11.85v-16.35l13.05-1.05,2.55-22.65h18.3v22.65h20.7v17.4h-20.7v37.2c0,9.6,3.9,14.1,11.4,14.1,2.7,0,6-.9,8.25-1.8l3.6,16.05c-4.5,1.5-10.35,3.15-17.7,3.15-19.95,0-27.6-12.75-27.6-31.5Z"/>
    <path class="cls-5" d="m3275.71,358c0-27.15,19.2-44.1,39.15-44.1,23.1,0,35.1,16.95,35.1,40.05,0,4.2-.45,8.25-1.05,10.2h-51.75c1.8,13.8,10.8,21,23.25,21,6.9,0,12.9-2.1,18.9-5.85l7.5,13.5c-8.25,5.7-18.9,9.3-29.25,9.3-23.55,0-41.85-16.35-41.85-44.1Zm55.35-8.55c0-11.25-5.1-18.45-15.9-18.45-8.85,0-16.65,6.3-18.3,18.45h34.2Z"/>
    <path class="cls-5" d="m3368.11,316h18l1.65,14.85h.45c6.15-10.95,15.15-16.95,23.85-16.95,4.65,0,7.35.75,9.9,1.8l-3.75,19.05c-3-.9-5.4-1.35-8.85-1.35-6.6,0-14.55,4.35-19.2,16.5v50.1h-22.05v-84Z"/>
    <path class="cls-5" d="m3469.36,288.85h36.45c24.6,0,43.5,8.7,43.5,34.95s-19.05,36.75-42.9,36.75h-14.85v39.45h-22.2v-111.15Zm35.55,54.15c15.3,0,22.65-6.45,22.65-19.2s-8.1-17.25-23.4-17.25h-12.6v36.45h13.35Z"/>
    <path class="cls-5" d="m3567.61,316h18l1.65,14.85h.45c6.15-10.95,15.15-16.95,23.85-16.95,4.65,0,7.35.75,9.9,1.8l-3.75,19.05c-3-.9-5.4-1.35-8.85-1.35-6.6,0-14.55,4.35-19.2,16.5v50.1h-22.05v-84Z"/>
    <path class="cls-5" d="m3627.76,358c0-27.9,19.35-44.1,40.35-44.1s40.35,16.2,40.35,44.1-19.35,44.1-40.35,44.1-40.35-16.2-40.35-44.1Zm58.2,0c0-15.75-6.45-26.1-17.85-26.1s-17.85,10.35-17.85,26.1,6.45,26.1,17.85,26.1,17.85-10.2,17.85-26.1Z"/>
    <path class="cls-5" d="m3706.96,432.1l3.9-16.35c2.25.75,4.5,1.2,7.05,1.2,7.05,0,9.15-4.8,9.15-14.25v-86.7h22.05v86.1c0,18-6.9,32.25-28.05,32.25-6.45,0-10.8-1.05-14.1-2.25Zm18.3-141.74c0-7.2,5.25-12,12.75-12s12.9,4.8,12.9,12-5.25,12.15-12.9,12.15-12.75-4.8-12.75-12.15Z"/>
    <path class="cls-5" d="m3767.55,358c0-27.15,19.2-44.1,39.15-44.1,23.1,0,35.1,16.95,35.1,40.05,0,4.2-.45,8.25-1.05,10.2h-51.75c1.8,13.8,10.8,21,23.25,21,6.9,0,12.9-2.1,18.9-5.85l7.5,13.5c-8.25,5.7-18.9,9.3-29.25,9.3-23.55,0-41.85-16.35-41.85-44.1Zm55.35-8.55c0-11.25-5.1-18.45-15.9-18.45-8.85,0-16.65,6.3-18.3,18.45h34.2Z"/>
    <path class="cls-5" d="m3854.7,358c0-27.9,20.1-44.1,42.9-44.1,10.35,0,18.3,4.05,24.45,9.3l-10.5,14.25c-4.2-3.6-8.1-5.55-12.75-5.55-12.9,0-21.6,10.35-21.6,26.1s8.85,26.1,20.85,26.1c6,0,11.7-2.85,16.35-6.75l8.85,14.55c-8.1,7.05-18.3,10.2-27.6,10.2-23.25,0-40.95-16.2-40.95-44.1Z"/>
    <path class="cls-5" d="m3942.15,370.6v-37.2h-11.85v-16.35l13.05-1.05,2.55-22.65h18.3v22.65h20.7v17.4h-20.7v37.2c0,9.6,3.9,14.1,11.4,14.1,2.7,0,6-.9,8.25-1.8l3.6,16.05c-4.5,1.5-10.35,3.15-17.7,3.15-19.95,0-27.6-12.75-27.6-31.5Z"/>
    <path class="cls-5" d="m1127.3,509.7h44.4v96.6h.9l73.5-96.6h48.9l-67.8,87.6,79.8,134.7h-48.6l-57.6-99.9-29.1,37.5v62.4h-44.4v-222.3Z"/>
    <path class="cls-5" d="m1333.1,509.7h44.4v222.3h-44.4v-222.3Z"/>
    <path class="cls-5" d="m1476.19,546.9h-62.4v-37.2h169.8v37.2h-63v185.1h-44.4v-185.1Z"/>
    <path class="cls-5" d="m1619.59,509.7h44.4v87.6h84v-87.6h44.1v222.3h-44.1v-96h-84v96h-44.4v-222.3Z"/>
    <path class="cls-5" d="m1845.49,632.1v-122.4h44.4v126.3c0,46.2,16.2,61.8,42,61.8s43.2-15.6,43.2-61.8v-126.3h42.6v122.4c0,73.8-31.5,104.1-85.8,104.1s-86.4-30.3-86.4-104.1Z"/>
    <path class="cls-5" d="m2071.09,509.7h73.5c45.6,0,80.4,13.5,80.4,54.9,0,20.4-11.4,41.4-30.3,48v1.5c24,5.7,41.7,22.5,41.7,52.5,0,44.7-37.2,65.4-86.1,65.4h-79.2v-222.3Zm70.2,90.6c28.2,0,40.5-11.4,40.5-29.1,0-19.5-13.2-27.3-39.9-27.3h-26.4v56.4h25.8Zm5.1,97.5c30.3,0,46.8-10.8,46.8-33.9,0-21.6-16.2-30.9-46.8-30.9h-30.9v64.8h30.9Z"/>
    <path class="cls-5" d="m2343.48,509.7h49.2l37.8,104.1c4.8,13.8,9,28.5,13.5,42.6h1.5c4.8-14.1,8.7-28.8,13.5-42.6l36.9-104.1h49.2v222.3h-40.5v-92.7c0-21,3.3-51.9,5.7-72.9h-1.5l-18,52.2-34.2,93.3h-25.5l-34.5-93.3-17.7-52.2h-1.2c2.1,21,5.7,51.9,5.7,72.9v92.7h-39.9v-222.3Z"/>
    <path class="cls-5" d="m2585.58,648c0-54.3,38.4-88.2,78.3-88.2,46.2,0,70.2,33.9,70.2,80.1,0,8.4-.9,16.5-2.1,20.4h-103.5c3.6,27.6,21.6,42,46.5,42,13.8,0,25.8-4.2,37.8-11.7l15,27c-16.5,11.4-37.8,18.6-58.5,18.6-47.1,0-83.7-32.7-83.7-88.2Zm110.7-17.1c0-22.5-10.2-36.9-31.8-36.9-17.7,0-33.3,12.6-36.6,36.9h68.4Z"/>
    <path class="cls-5" d="m2770.38,564h36l3.3,22.5h.9c14.1-14.7,29.7-26.7,51.6-26.7,24,0,38.1,10.8,46.2,29.4,15.3-16.2,31.5-29.4,53.4-29.4,35.7,0,52.2,25.2,52.2,67.5v104.7h-44.1v-99.3c0-26.1-7.5-35.1-23.4-35.1-9.6,0-20.4,6.3-32.4,18.9v115.5h-43.8v-99.3c0-26.1-7.8-35.1-23.7-35.1-9.6,0-20.4,6.3-32.1,18.9v115.5h-44.1v-168Z"/>
    <path class="cls-5" d="m3099.17,714.3h-1.2l-3.9,17.7h-34.5v-239.4h44.1v60.3l-1.2,27c13.2-12,30-20.1,46.5-20.1,41.4,0,66.3,33.9,66.3,85.2,0,57.9-34.5,91.2-71.4,91.2-15,0-31.2-7.8-44.7-21.9Zm70.8-68.4c0-32.1-10.2-49.8-33.3-49.8-11.4,0-21.6,5.7-33,17.4v73.8c10.5,9.3,21.3,12.6,30.3,12.6,20.4,0,36-17.4,36-54Z"/>
    <path class="cls-5" d="m3242.27,648c0-54.3,38.4-88.2,78.3-88.2,46.2,0,70.2,33.9,70.2,80.1,0,8.4-.9,16.5-2.1,20.4h-103.5c3.6,27.6,21.6,42,46.5,42,13.8,0,25.8-4.2,37.8-11.7l15,27c-16.5,11.4-37.8,18.6-58.5,18.6-47.1,0-83.7-32.7-83.7-88.2Zm110.7-17.1c0-22.5-10.2-36.9-31.8-36.9-17.7,0-33.3,12.6-36.6,36.9h68.4Z"/>
    <path class="cls-5" d="m3427.07,564h36l3.3,29.7h.9c12.3-21.9,30.3-33.9,47.7-33.9,9.3,0,14.7,1.5,19.8,3.6l-7.5,38.1c-6-1.8-10.8-2.7-17.7-2.7-13.2,0-29.1,8.7-38.4,33v100.2h-44.1v-168Z"/>
    <path class="cls-5" d="m3541.97,712.5l20.1-27.6c15,11.7,29.4,18.3,45,18.3,16.8,0,24.3-7.2,24.3-17.7,0-12.6-17.4-18.3-35.1-25.2-21.3-8.1-45-21-45-49.2,0-30,24.3-51.3,62.7-51.3,24.3,0,43.2,10.2,57,20.7l-19.8,26.7c-12-8.7-23.7-14.4-36-14.4-15.3,0-22.5,6.6-22.5,16.2,0,12.3,15.6,16.8,33.3,23.4,22.2,8.4,46.8,19.5,46.8,50.7,0,29.4-23.1,53.1-66.9,53.1-22.5,0-47.1-9.9-63.9-23.7Z"/>
    <path class="cls-5" d="m3778.06,509.7h72.9c49.2,0,87,17.4,87,69.9s-38.1,73.5-85.8,73.5h-29.7v78.9h-44.4v-222.3Zm71.1,108.3c30.6,0,45.3-12.9,45.3-38.4s-16.2-34.5-46.8-34.5h-25.2v72.9h26.7Z"/>
    <path class="cls-5" d="m3964.06,648c0-55.8,38.7-88.2,80.7-88.2s80.7,32.4,80.7,88.2-38.7,88.2-80.7,88.2-80.7-32.4-80.7-88.2Zm116.4,0c0-31.5-12.9-52.2-35.7-52.2s-35.7,20.7-35.7,52.2,12.9,52.2,35.7,52.2,35.7-20.4,35.7-52.2Z"/>
    <path class="cls-5" d="m4162.36,564h36l3.3,29.7h.9c12.3-21.9,30.3-33.9,47.7-33.9,9.3,0,14.7,1.5,19.8,3.6l-7.5,38.1c-6-1.8-10.8-2.7-17.7-2.7-13.2,0-29.1,8.7-38.4,33v100.2h-44.1v-168Z"/>
    <path class="cls-5" d="m4299.46,673.2v-74.4h-23.7v-32.7l26.1-2.1,5.1-45.3h36.6v45.3h41.4v34.8h-41.4v74.4c0,19.2,7.8,28.2,22.8,28.2,5.4,0,12-1.8,16.5-3.6l7.2,32.1c-9,3-20.7,6.3-35.4,6.3-39.9,0-55.2-25.5-55.2-63Z"/>
    <path class="cls-5" d="m4410.75,686.4c0-36,29.1-54.9,96.9-62.1-.9-16.5-8.1-29.1-28.8-29.1-15.6,0-30.6,6.9-46.2,15.9l-15.9-29.1c19.8-12.3,43.8-22.2,70.2-22.2,42.6,0,64.5,25.5,64.5,74.1v98.1h-36l-3-18h-1.2c-14.7,12.6-31.5,22.2-50.7,22.2-30,0-49.8-21.3-49.8-49.8Zm96.9-1.2v-33.9c-41.1,5.1-54.9,16.5-54.9,31.5,0,13.2,9.3,18.9,22.2,18.9s21.9-6,32.7-16.5Z"/>
    <path class="cls-5" d="m4596.45,684.9v-192.3h44.1v194.1c0,10.2,4.5,13.5,8.7,13.5,1.8,0,3,0,6-.6l5.4,32.7c-5.1,2.1-12.3,3.9-22.8,3.9-30.6,0-41.4-20.1-41.4-51.3Z"/>
  </g>
  <ellipse class="cls-5" cx="500.16" cy="500" rx="500.06" ry="500"/>
  <g class="cls-2">
    <rect class="cls-3" x="110.12" width="30" height="1000"/>
    <rect class="cls-3" x="860.2" width="30" height="1000"/>
    <rect class="cls-3" x="484.76" y="-335.46" width="30" height="1006.92" transform="translate(667.76 -331.76) rotate(90)"/>
    <rect class="cls-3" x="242.63" y="242.47" width="30" height="515.06" transform="translate(757.63 242.37) rotate(90)"/>
    <rect class="cls-3" x="485.16" width="30" height="515"/>
    <rect class="cls-3" x="297.54" y="500" width="30" height="500"/>
    <rect class="cls-3" x="670.78" width="30" height="1000"/>
  </g>
  <g>
    <path class="cls-3" d="m417.45,665.45h7.4v16.1h.15l12.25-16.1h8.15l-11.3,14.6,13.3,22.45h-8.1l-9.6-16.65-4.85,6.25v10.4h-7.4v-37.05Z"/>
    <path class="cls-3" d="m451.76,665.45h7.4v37.05h-7.4v-37.05Z"/>
    <path class="cls-3" d="m468.26,665.45h7.55l10.75,19.75,3.7,8h.25c-.35-3.85-.95-8.75-.95-12.95v-14.8h7v37.05h-7.5l-10.7-19.8-3.75-7.95h-.25c.35,4,.9,8.65.9,12.9v14.85h-7v-37.05Z"/>
    <path class="cls-3" d="m505.71,665.45h10.15c11.3,0,18.3,5.9,18.3,18.4s-7,18.65-17.9,18.65h-10.55v-37.05Zm9.7,31.1c6.9,0,11.2-3.7,11.2-12.7s-4.3-12.45-11.2-12.45h-2.3v25.15h2.3Z"/>
    <path class="cls-3" d="m548.52,665.45h8.7l11.9,37.05h-7.75l-2.6-9.5h-12l-2.6,9.5h-7.5l11.85-37.05Zm-.15,21.8h8.8l-1.1-4.05c-1.15-3.85-2.15-8.1-3.2-12.1h-.25c-.95,4.05-2.05,8.25-3.15,12.1l-1.1,4.05Z"/>
    <path class="cls-3" d="m573.47,665.45h7.4v37.05h-7.4v-37.05Z"/>
    <path class="cls-3" d="m358.6,726.6h10.74v44.7h-10.74v-44.7Z"/>
    <path class="cls-3" d="m378.76,737.16h8.7l.78,4.26h.18c2.82-2.76,6.3-5.1,10.92-5.1,7.44,0,10.62,5.34,10.62,13.86v21.12h-10.68v-19.8c0-4.74-1.26-6.06-3.96-6.06-2.4,0-3.84,1.08-5.88,3.06v22.8h-10.68v-34.14Z"/>
    <path class="cls-3" d="m420.04,745.5h-4.56v-7.92l4.56-.36v-1.38c0-7.2,3.42-13.32,12.9-13.32,3,0,5.46.6,6.96,1.14l-1.92,7.92c-1.08-.48-2.34-.72-3.48-.72-2.34,0-3.78,1.26-3.78,4.68v1.62h6.06v8.34h-6.06v25.8h-10.68v-25.8Z"/>
    <path class="cls-3" d="m440.2,754.2c0-11.28,8.04-17.88,16.74-17.88s16.68,6.6,16.68,17.88-8.04,17.94-16.68,17.94-16.74-6.6-16.74-17.94Zm22.5,0c0-5.64-1.8-9.24-5.76-9.24s-5.82,3.6-5.82,9.24,1.8,9.3,5.82,9.3,5.76-3.6,5.76-9.3Z"/>
    <path class="cls-3" d="m479.03,750.18h16.98v7.5h-16.98v-7.5Z"/>
    <path class="cls-3" d="m512.81,735.54h-12.06v-8.94h34.92v8.94h-12.12v35.76h-10.74v-35.76Z"/>
    <path class="cls-3" d="m539.82,754.2c0-11.04,7.98-17.88,16.2-17.88,9.84,0,14.64,7.14,14.64,16.44,0,1.92-.24,3.78-.48,4.62h-20.04c.96,4.68,4.2,6.6,8.52,6.6,2.46,0,4.74-.72,7.2-2.16l3.54,6.42c-3.54,2.52-8.22,3.9-12.18,3.9-9.84,0-17.4-6.6-17.4-17.94Zm21.78-3.84c0-3.36-1.5-5.88-5.4-5.88-2.94,0-5.52,1.86-6.24,5.88h11.64Z"/>
    <path class="cls-3" d="m575.58,754.2c0-11.28,8.4-17.88,17.94-17.88,4.14,0,7.38,1.44,9.96,3.66l-4.98,6.78c-1.56-1.26-2.88-1.8-4.32-1.8-4.74,0-7.68,3.6-7.68,9.24s3.12,9.3,7.26,9.3c2.16,0,4.2-1.02,5.94-2.4l4.14,7.02c-3.36,2.94-7.68,4.02-11.28,4.02-9.6,0-16.98-6.6-16.98-17.94Z"/>
    <path class="cls-3" d="m609.72,723.36h10.68v11.52l-.54,6.06c2.46-2.28,5.82-4.62,10.44-4.62,7.44,0,10.62,5.34,10.62,13.86v21.12h-10.68v-19.8c0-4.74-1.26-6.06-3.96-6.06-2.4,0-3.84,1.08-5.88,3.06v22.8h-10.68v-47.94Z"/>
    <path class="cls-3" d="m437.35,796.6h10.74v17.04h14.7v-17.04h10.68v44.7h-10.68v-18.36h-14.7v18.36h-10.74v-44.7Z"/>
    <path class="cls-3" d="m483.56,820.3v-23.7h10.68v24.84c0,8.46,2.52,11.46,7.44,11.46s7.56-3,7.56-11.46v-24.84h10.32v23.7c0,15.06-6,21.84-17.88,21.84s-18.12-6.78-18.12-21.84Z"/>
    <path class="cls-3" d="m529.58,796.6h15.6c9.24,0,16.62,2.52,16.62,11.1,0,3.96-2.22,8.28-5.82,9.66v.24c4.5,1.2,7.92,4.56,7.92,10.5,0,9.12-7.74,13.2-17.46,13.2h-16.86v-44.7Zm15.18,17.76c4.56,0,6.6-1.98,6.6-5.04s-2.1-4.5-6.6-4.5h-4.44v9.54h4.44Zm.9,18.72c5.16,0,7.8-1.86,7.8-5.7s-2.58-5.16-7.8-5.16h-5.34v10.86h5.34Z"/>
  </g>
</svg>