<?xml version="1.0" encoding="UTF-8"?>
<svg id="_レイヤー_3" data-name="レイヤー 3" xmlns="http://www.w3.org/2000/svg" width="1600" height="1600" viewBox="0 0 1600 1600">
  <defs>
    <style>
      .cls-1 {
        fill: #fff;
      }
    </style>
  </defs>
  <rect class="cls-1" y="0" width="1600" height="1600"/>
  <circle cx="1034.15" cy="593.44" r="29.27"/>
  <g>
    <path d="m458.83,1114.12h25.57l25.99,50.16,10.26,23.18h.7c-1.26-11.1-3.37-26.13-3.37-38.64v-34.7h23.88v104.67h-25.57l-25.85-50.44-10.26-22.9h-.7c1.12,11.66,3.23,25.99,3.23,38.64v34.7h-23.89v-104.67Z"/>
    <path d="m561.39,1165.96c0-34.28,19.39-53.67,47.91-53.67s47.91,19.53,47.91,53.67-19.39,54.79-47.91,54.79-47.91-20.51-47.91-54.79Zm70.25,0c0-20.23-8.57-32.17-22.34-32.17s-22.2,11.94-22.2,32.17,8.43,33.16,22.2,33.16,22.34-12.92,22.34-33.16Z"/>
    <path d="m708.76,1114.12h25.15v104.67h-25.15v-104.67Z"/>
    <path d="m757.92,1114.12h27.12l16.58,45.24c2.11,6.04,3.79,12.64,5.76,18.97h.7c2.11-6.32,3.79-12.93,5.76-18.97l16.02-45.24h27.26v104.67h-22.9v-35.83c0-10.4,1.97-25.99,3.37-36.25h-.7l-8.71,25.01-14.05,38.22h-13.77l-14.19-38.22-8.43-25.01h-.56c1.26,10.26,3.23,25.85,3.23,36.25v35.83h-22.48v-104.67Z"/>
    <path d="m900.38,1114.12h30.07l32.46,104.67h-26.41l-6.04-24.03h-30.91l-6.04,24.03h-25.57l32.46-104.67Zm3.93,61.26h21.36l-2.25-8.85c-2.81-10.4-5.48-22.9-8.29-33.58h-.56c-2.53,10.96-5.34,23.18-8.01,33.58l-2.25,8.85Z"/>
    <path d="m969.08,1167.09c0-34.84,23.46-54.8,51.42-54.8,15.31,0,26.27,6.46,33.44,13.63l-13.21,16.02c-5.2-4.64-10.68-8.15-19.39-8.15-15.46,0-26.55,12.08-26.55,32.45s9.27,32.88,28.8,32.88c3.65,0,7.59-.98,9.84-2.67v-16.86h-16.58v-20.51h38.92v48.89c-7.31,7.03-20.23,12.79-34.84,12.79-28.94,0-51.84-18.26-51.84-53.67Z"/>
    <path d="m1076.83,1114.12h66.32v20.93h-41.17v19.39h34.98v21.07h-34.98v22.2h42.71v21.07h-67.86v-104.67Z"/>
  </g>
  <g>
    <path d="m673.75,825.17c-16.24-23.81-25.94-52.43-26.46-83.25-1.41-84.17,68.33-155.21,152.51-155.31,31.19-.04,60.92,9.21,86.09,26.41l13.99-13.99c-29.82-21.33-65.59-32.59-103.13-31.9-89.8,1.64-164,73.2-168.75,162.89-2.16,40.74,9.93,78.65,31.73,109.17l14.02-14.02Z"/>
    <path d="m927.1,654.6c16.66,24.89,25.63,54.13,25.63,84.73,0,84.21-68.51,152.73-152.73,152.73-31.3,0-60.42-9.48-84.67-25.69l-14.04,14.04c27.97,19.63,62.01,31.17,98.7,31.17,94.97,0,172.24-77.27,172.24-172.24,0-35.83-10.93-70-31.13-98.74l-14.01,14.01Z"/>
  </g>
  <path d="m459.51,1091.01c-2.5,0-4.99-.95-6.9-2.86-3.81-3.81-3.81-9.99,0-13.8l692.25-692.25c3.81-3.81,9.99-3.81,13.8,0,3.81,3.81,3.81,9.99,0,13.8l-692.25,692.25c-1.9,1.91-4.4,2.86-6.9,2.86Z"/>
  <g>
    <path d="m505.96,993.41l19.48-19.48h-18.12c-48.42,0-87.8-39.39-87.8-87.8v-292.68c0-48.42,39.39-87.8,87.8-87.8h486.41l19.51-19.51h-505.93c-59.17,0-107.32,48.14-107.32,107.32v292.68c0,58.72,47.41,106.55,105.96,107.28Z"/>
    <path d="m1095.94,486.21l-19.43,19.43h16.17c48.42,0,87.8,39.39,87.8,87.8v292.68c0,48.42-39.39,87.8-87.8,87.8h-484.46l-19.51,19.51h503.97c59.17,0,107.32-48.14,107.32-107.32v-292.68c0-58.08-46.39-105.5-104.06-107.23Z"/>
  </g>
  <polygon points="962.68 501.39 892.42 398.75 707.58 398.75 637.32 501.39 621.22 490.37 697.29 379.24 902.71 379.24 978.78 490.37 962.68 501.39"/>
</svg>